<svg width="24" height="24" viewBox="0 0 24 24" fill="none" xmlns="http://www.w3.org/2000/svg">
<path opacity="0.4" d="M1.25 12.0049C1.25 17.942 6.06294 22.7549 12 22.7549C17.9371 22.7549 22.75 17.942 22.75 12.0049C22.75 6.06782 17.9371 1.25488 12 1.25488C6.06294 1.25488 1.25 6.06782 1.25 12.0049Z" fill="#C6C6C6"/>
<path d="M16.8775 8.02526C17.1425 8.50981 16.9645 9.11745 16.48 9.38244C15.1086 10.1324 13.8208 11.7024 12.8374 13.2081C12.3581 13.9421 11.9735 14.6256 11.709 15.1253C11.577 15.3746 11.4756 15.577 11.4079 15.7154L11.3096 15.9208C11.1551 16.2585 10.8261 16.4831 10.4553 16.5036C10.0844 16.524 9.73267 16.3372 9.54198 16.0184C9.23126 15.4989 8.73753 15.0247 8.27997 14.663C8.05764 14.4872 7.85752 14.3486 7.71471 14.2551L7.50442 14.1236C7.02493 13.8498 6.85797 13.2393 7.13152 12.7597C7.40513 12.2799 8.01585 12.1128 8.49559 12.3864L8.81063 12.5821C8.99282 12.7014 9.2427 12.8746 9.52038 13.0941C9.73258 13.2619 9.96984 13.4636 10.2094 13.696C10.4662 13.2346 10.7872 12.6899 11.1629 12.1145C12.1796 10.5578 13.6917 8.62774 15.5204 7.6277C16.0049 7.3627 16.6125 7.5407 16.8775 8.02526Z" fill="#C6C6C6"/>
</svg>
