<svg width="153" height="153" viewBox="0 0 153 153" fill="none" xmlns="http://www.w3.org/2000/svg">
<g filter="url(#filter0_b_1735_1417)">
<path fill-rule="evenodd" clip-rule="evenodd" d="M76.5 140.25C49.4509 140.25 35.9295 140.25 27.5272 130.911C19.125 121.584 19.125 106.552 19.125 76.5C19.125 46.4482 19.125 31.4224 27.5272 22.083C35.9295 12.75 49.4572 12.75 76.5 12.75C103.549 12.75 117.07 12.75 125.473 22.083C133.875 31.4287 133.875 46.4482 133.875 76.5C133.875 106.552 133.875 121.578 125.473 130.911C117.07 140.25 103.543 140.25 76.5 140.25ZM95.625 38.25H57.375C54.4106 38.25 52.9316 38.25 51.714 38.5751C50.0939 39.0098 48.6167 39.8631 47.4306 41.0492C46.2445 42.2353 45.3912 43.7125 44.9565 45.3326C44.625 46.563 44.625 48.042 44.625 51C44.625 53.958 44.625 55.4434 44.9501 56.661C45.3849 58.2811 46.2381 59.7583 47.4242 60.9444C48.6103 62.1305 50.0875 62.9838 51.7076 63.4185C52.938 63.75 54.417 63.75 57.375 63.75H95.625C98.5894 63.75 100.068 63.75 101.286 63.4249C102.906 62.9901 104.383 62.1369 105.569 60.9508C106.756 59.7647 107.609 58.2875 108.044 56.6674C108.375 55.437 108.375 53.958 108.375 51C108.375 48.042 108.375 46.5566 108.05 45.339C107.615 43.7189 106.762 42.2417 105.576 41.0556C104.39 39.8695 102.912 39.0162 101.292 38.5815C100.068 38.25 98.583 38.25 95.625 38.25ZM57.375 82.875C57.375 84.5658 56.7034 86.1873 55.5078 87.3828C54.3123 88.5783 52.6908 89.25 51 89.25C49.3092 89.25 47.6877 88.5783 46.4922 87.3828C45.2967 86.1873 44.625 84.5658 44.625 82.875C44.625 81.1842 45.2967 79.5627 46.4922 78.3672C47.6877 77.1716 49.3092 76.5 51 76.5C52.6908 76.5 54.3123 77.1716 55.5078 78.3672C56.7034 79.5627 57.375 81.1842 57.375 82.875ZM76.5 89.25C78.1908 89.25 79.8123 88.5783 81.0078 87.3828C82.2034 86.1873 82.875 84.5658 82.875 82.875C82.875 81.1842 82.2034 79.5627 81.0078 78.3672C79.8123 77.1716 78.1908 76.5 76.5 76.5C74.8092 76.5 73.1877 77.1716 71.9922 78.3672C70.7966 79.5627 70.125 81.1842 70.125 82.875C70.125 84.5658 70.7966 86.1873 71.9922 87.3828C73.1877 88.5783 74.8092 89.25 76.5 89.25ZM108.375 82.875C108.375 84.5658 107.703 86.1873 106.508 87.3828C105.312 88.5783 103.691 89.25 102 89.25C100.309 89.25 98.6877 88.5783 97.4922 87.3828C96.2967 86.1873 95.625 84.5658 95.625 82.875C95.625 81.1842 96.2967 79.5627 97.4922 78.3672C98.6877 77.1716 100.309 76.5 102 76.5C103.691 76.5 105.312 77.1716 106.508 78.3672C107.703 79.5627 108.375 81.1842 108.375 82.875ZM102 114.75C103.691 114.75 105.312 114.078 106.508 112.883C107.703 111.687 108.375 110.066 108.375 108.375C108.375 106.684 107.703 105.063 106.508 103.867C105.312 102.672 103.691 102 102 102C100.309 102 98.6877 102.672 97.4922 103.867C96.2967 105.063 95.625 106.684 95.625 108.375C95.625 110.066 96.2967 111.687 97.4922 112.883C98.6877 114.078 100.309 114.75 102 114.75ZM82.875 108.375C82.875 110.066 82.2034 111.687 81.0078 112.883C79.8123 114.078 78.1908 114.75 76.5 114.75C74.8092 114.75 73.1877 114.078 71.9922 112.883C70.7966 111.687 70.125 110.066 70.125 108.375C70.125 106.684 70.7966 105.063 71.9922 103.867C73.1877 102.672 74.8092 102 76.5 102C78.1908 102 79.8123 102.672 81.0078 103.867C82.2034 105.063 82.875 106.684 82.875 108.375ZM51 114.75C52.6908 114.75 54.3123 114.078 55.5078 112.883C56.7034 111.687 57.375 110.066 57.375 108.375C57.375 106.684 56.7034 105.063 55.5078 103.867C54.3123 102.672 52.6908 102 51 102C49.3092 102 47.6877 102.672 46.4922 103.867C45.2967 105.063 44.625 106.684 44.625 108.375C44.625 110.066 45.2967 111.687 46.4922 112.883C47.6877 114.078 49.3092 114.75 51 114.75Z" fill="#D2D6EE"/>
</g>
<defs>
<filter id="filter0_b_1735_1417" x="5.125" y="-1.25" width="142.75" height="155.5" filterUnits="userSpaceOnUse" color-interpolation-filters="sRGB">
<feFlood flood-opacity="0" result="BackgroundImageFix"/>
<feGaussianBlur in="BackgroundImageFix" stdDeviation="7"/>
<feComposite in2="SourceAlpha" operator="in" result="effect1_backgroundBlur_1735_1417"/>
<feBlend mode="normal" in="SourceGraphic" in2="effect1_backgroundBlur_1735_1417" result="shape"/>
</filter>
</defs>
</svg>
