<svg width="21" height="21" viewBox="0 0 21 21" fill="none" xmlns="http://www.w3.org/2000/svg">
<path d="M18.9656 7.90781C18.5044 6.8162 17.8358 5.82444 16.9969 4.9875C16.1599 4.14854 15.1682 3.47994 14.0766 3.01875C12.9425 2.53887 11.7407 2.29688 10.5 2.29688C9.25928 2.29688 8.05752 2.53887 6.92344 3.01875C5.83183 3.47994 4.84006 4.14854 4.00312 4.9875C3.16417 5.82444 2.49556 6.8162 2.03437 7.90781C1.55449 9.04189 1.3125 10.2437 1.3125 11.4844C1.3125 14.2058 2.50811 16.7692 4.5917 18.5206L4.62656 18.5493C4.74551 18.6478 4.89521 18.7031 5.04902 18.7031H15.953C16.1068 18.7031 16.2565 18.6478 16.3755 18.5493L16.4104 18.5206C18.4919 16.7692 19.6875 14.2058 19.6875 11.4844C19.6875 10.2437 19.4435 9.04189 18.9656 7.90781ZM9.88477 4.75781C9.88477 4.66758 9.95859 4.59375 10.0488 4.59375H10.9512C11.0414 4.59375 11.1152 4.66758 11.1152 4.75781V6.39844C11.1152 6.48867 11.0414 6.5625 10.9512 6.5625H10.0488C9.95859 6.5625 9.88477 6.48867 9.88477 6.39844V4.75781ZM5.53711 11.9355C5.53711 12.0258 5.46328 12.0996 5.37305 12.0996H3.73242C3.64219 12.0996 3.56836 12.0258 3.56836 11.9355V11.0332C3.56836 10.943 3.64219 10.8691 3.73242 10.8691H5.37305C5.46328 10.8691 5.53711 10.943 5.53711 11.0332V11.9355ZM7.39717 7.7417L6.75938 8.37949C6.72854 8.41002 6.6869 8.42715 6.64351 8.42715C6.60011 8.42715 6.55847 8.41002 6.52764 8.37949L5.36689 7.21875C5.33636 7.18791 5.31923 7.14628 5.31923 7.10288C5.31923 7.05949 5.33636 7.01785 5.36689 6.98701L6.00469 6.34922C6.06826 6.28564 6.17285 6.28564 6.23643 6.34922L7.39717 7.50996C7.46074 7.57354 7.46074 7.67812 7.39717 7.7417ZM13.367 9.45615L11.6341 11.1891C11.7366 11.5726 11.6382 11.9971 11.3367 12.2985C11.2301 12.4053 11.1036 12.49 10.9642 12.5478C10.8249 12.6056 10.6755 12.6354 10.5246 12.6354C10.3737 12.6354 10.2244 12.6056 10.085 12.5478C9.94566 12.49 9.81908 12.4053 9.7125 12.2985C9.60572 12.192 9.52101 12.0654 9.46321 11.926C9.40541 11.7867 9.37566 11.6373 9.37566 11.4864C9.37566 11.3356 9.40541 11.1862 9.46321 11.0468C9.52101 10.9075 9.60572 10.7809 9.7125 10.6743C9.8549 10.5315 10.0325 10.4288 10.2273 10.3766C10.4221 10.3244 10.6272 10.3245 10.822 10.377L12.5549 8.64404C12.6185 8.58047 12.723 8.58047 12.7866 8.64404L13.367 9.22441C13.4306 9.28799 13.4306 9.39053 13.367 9.45615ZM14.2488 8.38154L13.611 7.74375C13.5805 7.71291 13.5634 7.67128 13.5634 7.62788C13.5634 7.58449 13.5805 7.54285 13.611 7.51201L14.7718 6.35127C14.8354 6.2877 14.9399 6.2877 15.0035 6.35127L15.6413 6.98906C15.7049 7.05264 15.7049 7.15723 15.6413 7.2208L14.4806 8.38154C14.4497 8.41208 14.4081 8.4292 14.3647 8.4292C14.3213 8.4292 14.2797 8.41208 14.2488 8.38154ZM17.3496 11.9355C17.3496 12.0258 17.2758 12.0996 17.1855 12.0996H15.5449C15.4547 12.0996 15.3809 12.0258 15.3809 11.9355V11.0332C15.3809 10.943 15.4547 10.8691 15.5449 10.8691H17.1855C17.2758 10.8691 17.3496 10.943 17.3496 11.0332V11.9355Z" fill="white"/>
</svg>
