<svg width="21" height="21" viewBox="0 0 21 21" fill="none" xmlns="http://www.w3.org/2000/svg">
<path d="M3.14961 3.1499C2.87113 3.1499 2.60406 3.26053 2.40715 3.45744C2.21023 3.65435 2.09961 3.92142 2.09961 4.1999C2.09961 4.47838 2.21023 4.74545 2.40715 4.94236C2.60406 5.13928 2.87113 5.2499 3.14961 5.2499V11.5499C3.14961 12.3853 3.48148 13.1865 4.07222 13.7773C4.66296 14.368 5.46418 14.6999 6.29961 14.6999H9.97461V16.7999H7.87461C7.73537 16.7999 7.60183 16.8552 7.50338 16.9537C7.40492 17.0521 7.34961 17.1857 7.34961 17.3249C7.34961 17.4641 7.40492 17.5977 7.50338 17.6961C7.60183 17.7946 7.73537 17.8499 7.87461 17.8499H13.1246C13.2638 17.8499 13.3974 17.7946 13.4958 17.6961C13.5943 17.5977 13.6496 17.4641 13.6496 17.3249C13.6496 17.1857 13.5943 17.0521 13.4958 16.9537C13.3974 16.8552 13.2638 16.7999 13.1246 16.7999H11.0246V14.6999H14.6996C15.535 14.6999 16.3363 14.368 16.927 13.7773C17.5177 13.1865 17.8496 12.3853 17.8496 11.5499V5.2499C18.1281 5.2499 18.3952 5.13928 18.5921 4.94236C18.789 4.74545 18.8996 4.47838 18.8996 4.1999C18.8996 3.92142 18.789 3.65435 18.5921 3.45744C18.3952 3.26053 18.1281 3.1499 17.8496 3.1499H3.14961Z" fill="white"/>
</svg>
