<svg width="26" height="26" viewBox="0 0 26 26" fill="none" xmlns="http://www.w3.org/2000/svg">
<path fill-rule="evenodd" clip-rule="evenodd" d="M5 8C5 7.73478 5.12793 7.48043 5.35566 7.29289C5.58338 7.10536 5.89224 7 6.21429 7H20.7857C21.1078 7 21.4166 7.10536 21.6443 7.29289C21.8721 7.48043 22 7.73478 22 8C22 8.26522 21.8721 8.51957 21.6443 8.70711C21.4166 8.89464 21.1078 9 20.7857 9H6.21429C5.89224 9 5.58338 8.89464 5.35566 8.70711C5.12793 8.51957 5 8.26522 5 8ZM5 13C5 12.7348 5.12793 12.4804 5.35566 12.2929C5.58338 12.1054 5.89224 12 6.21429 12H20.7857C21.1078 12 21.4166 12.1054 21.6443 12.2929C21.8721 12.4804 22 12.7348 22 13C22 13.2652 21.8721 13.5196 21.6443 13.7071C21.4166 13.8946 21.1078 14 20.7857 14H6.21429C5.89224 14 5.58338 13.8946 5.35566 13.7071C5.12793 13.5196 5 13.2652 5 13ZM5 18C5 17.7348 5.12793 17.4804 5.35566 17.2929C5.58338 17.1054 5.89224 17 6.21429 17H20.7857C21.1078 17 21.4166 17.1054 21.6443 17.2929C21.8721 17.4804 22 17.7348 22 18C22 18.2652 21.8721 18.5196 21.6443 18.7071C21.4166 18.8946 21.1078 19 20.7857 19H6.21429C5.89224 19 5.58338 18.8946 5.35566 18.7071C5.12793 18.5196 5 18.2652 5 18Z" fill="white"/>
</svg>
