<svg width="21" height="21" viewBox="0 0 21 21" fill="none" xmlns="http://www.w3.org/2000/svg">
<path d="M18.3225 15.2775H17.3512C17.2987 15.7325 17.0013 16.3012 16.2575 16.3012C15.575 16.3012 15.085 15.8288 14.6125 15.1112C15.3928 14.5148 16.0235 13.7449 16.4548 12.8626C16.8861 11.9802 17.1061 11.0096 17.0975 10.0275C17.0975 6.125 13.8775 3.5 10.5087 3.5C7.18375 3.5 3.9375 6.15125 3.9375 10.0363C3.9375 13.8863 7.18375 16.5375 10.5087 16.5375C11.0863 16.5375 11.6638 16.4587 12.215 16.31C12.8625 17.4212 13.7287 18.375 15.365 18.375C18.0775 18.375 18.3838 15.8725 18.3225 15.2775ZM13.5538 13.37C12.915 12.3987 12.1012 11.6375 10.5262 11.6375C9.51125 11.6375 8.72375 11.97 8.23375 12.39L8.63625 13.195C8.84625 13.0988 9.065 13.0638 9.2925 13.0638C10.4738 13.0638 11.0775 14.0875 11.5938 15.1025C11.2613 15.1988 10.9025 15.2425 10.5087 15.2425C8.015 15.2425 6.93875 13.4838 6.93875 10.0363C6.93875 6.57125 8.015 4.795 10.5087 4.795C13.0375 4.795 14.1225 6.57125 14.1225 10.0363C14.1137 11.4188 13.9388 12.5387 13.5538 13.37Z" fill="white"/>
</svg>
