<svg width="21" height="21" viewBox="0 0 21 21" fill="none" xmlns="http://www.w3.org/2000/svg">
<path d="M10.5 1.75C5.67 1.75 1.75 5.67 1.75 10.5C1.75 15.33 5.67 19.25 10.5 19.25C15.33 19.25 19.25 15.33 19.25 10.5C19.25 5.67 15.33 1.75 10.5 1.75ZM11.375 16.625H9.625V14.875H11.375V16.625ZM13.1862 9.84375L12.3988 10.6488C11.9613 11.095 11.6462 11.4975 11.4888 12.1275C11.4187 12.4075 11.375 12.7225 11.375 13.125H9.625V12.6875C9.6245 12.2277 9.71466 11.7723 9.89032 11.3474C10.066 10.9225 10.3237 10.5364 10.6488 10.2113L11.7337 9.10875C12.1362 8.72375 12.3287 8.14625 12.215 7.53375C12.1543 7.22061 12.0088 6.93015 11.7943 6.69407C11.5799 6.45798 11.3046 6.28535 10.9987 6.195C10.0275 5.92375 9.12625 6.475 8.8375 7.30625C8.7325 7.63 8.46125 7.875 8.12 7.875H7.8575C7.35 7.875 7 7.385 7.14 6.895C7.32767 6.25666 7.69305 5.68488 8.1935 5.24641C8.69394 4.80795 9.30878 4.52089 9.96625 4.41875C11.2963 4.20875 12.565 4.9 13.3525 5.99375C14.385 7.42 14.0787 8.95125 13.1862 9.84375Z" fill="white"/>
</svg>
