<svg width="21" height="21" viewBox="0 0 21 21" fill="none" xmlns="http://www.w3.org/2000/svg">
<path d="M17.1951 16.9794C17.6781 16.8788 17.9669 16.373 17.7262 15.9408C17.196 14.9896 16.3612 14.1531 15.2937 13.5161C13.9182 12.6954 12.2321 12.25 10.4996 12.25C8.76624 12.25 7.08099 12.6945 5.70549 13.5161C4.63799 14.1531 3.80324 14.9896 3.27299 15.9408C3.03236 16.373 3.32111 16.8788 3.80411 16.9794C8.22005 17.8997 12.7783 17.8997 17.1942 16.9794" fill="white"/>
<path d="M10.5 11.375C12.9162 11.375 14.875 9.41625 14.875 7C14.875 4.58375 12.9162 2.625 10.5 2.625C8.08375 2.625 6.125 4.58375 6.125 7C6.125 9.41625 8.08375 11.375 10.5 11.375Z" fill="white"/>
</svg>
