<svg width="21" height="21" viewBox="0 0 21 21" fill="none" xmlns="http://www.w3.org/2000/svg">
<path d="M12.25 11.375H16.625V9.625H12.25V11.375ZM12.25 8.75H16.625V7H12.25V8.75ZM4.375 14H11.375V13.5188C11.375 12.8625 11.0542 12.3413 10.4125 11.9551C9.77083 11.569 8.925 11.3756 7.875 11.375C6.825 11.3744 5.97917 11.5678 5.3375 11.9551C4.69583 12.3425 4.375 12.8637 4.375 13.5188V14ZM7.875 10.5C8.35625 10.5 8.76837 10.3288 9.11137 9.98637C9.45438 9.64396 9.62558 9.23183 9.625 8.75C9.62442 8.26817 9.45321 7.85633 9.11137 7.5145C8.76954 7.17267 8.35742 7.00117 7.875 7C7.39258 6.99883 6.98075 7.17033 6.6395 7.5145C6.29825 7.85867 6.12675 8.2705 6.125 8.75C6.12325 9.2295 6.29475 9.64162 6.6395 9.98637C6.98425 10.3311 7.39608 10.5023 7.875 10.5ZM3.5 17.5C3.01875 17.5 2.60692 17.3288 2.2645 16.9864C1.92208 16.644 1.75058 16.2318 1.75 15.75V5.25C1.75 4.76875 1.9215 4.35692 2.2645 4.0145C2.6075 3.67208 3.01933 3.50058 3.5 3.5H17.5C17.9813 3.5 18.3934 3.6715 18.7364 4.0145C19.0794 4.3575 19.2506 4.76933 19.25 5.25V15.75C19.25 16.2312 19.0788 16.6434 18.7364 16.9864C18.394 17.3294 17.9818 17.5006 17.5 17.5H3.5Z" fill="white"/>
</svg>
