<svg width="21" height="21" viewBox="0 0 21 21" fill="none" xmlns="http://www.w3.org/2000/svg">
<path d="M4.375 18.375C3.89375 18.375 3.48192 18.2038 3.1395 17.8614C2.79708 17.519 2.62558 17.1068 2.625 16.625V4.375C2.625 3.89375 2.7965 3.48192 3.1395 3.1395C3.4825 2.79708 3.89433 2.62558 4.375 2.625H16.625C17.1062 2.625 17.5184 2.7965 17.8614 3.1395C18.2044 3.4825 18.3756 3.89433 18.375 4.375V16.625C18.375 17.1062 18.2038 17.5184 17.8614 17.8614C17.519 18.2044 17.1068 18.3756 16.625 18.375H4.375ZM16.625 6.34375L11.3313 12.2937L7.875 8.8375L4.375 12.3375V14.8313L7.875 11.3313L11.4187 14.875L16.625 8.96875V6.34375Z" fill="white"/>
</svg>
