<svg width="21" height="21" viewBox="0 0 21 21" fill="none" xmlns="http://www.w3.org/2000/svg">
<path d="M5.25 14.875C5.25 13.125 8.75 12.1625 10.5 12.1625C12.25 12.1625 15.75 13.125 15.75 14.875V15.75H5.25M13.125 7.875C13.125 8.57119 12.8484 9.23887 12.3562 9.73116C11.8639 10.2234 11.1962 10.5 10.5 10.5C9.80381 10.5 9.13613 10.2234 8.64384 9.73116C8.15156 9.23887 7.875 8.57119 7.875 7.875C7.875 7.17881 8.15156 6.51113 8.64384 6.01884C9.13613 5.52656 9.80381 5.25 10.5 5.25C11.1962 5.25 11.8639 5.52656 12.3562 6.01884C12.8484 6.51113 13.125 7.17881 13.125 7.875ZM2.625 4.375V16.625C2.625 17.0891 2.80937 17.5342 3.13756 17.8624C3.46575 18.1906 3.91087 18.375 4.375 18.375H16.625C17.0891 18.375 17.5342 18.1906 17.8624 17.8624C18.1906 17.5342 18.375 17.0891 18.375 16.625V4.375C18.375 3.91087 18.1906 3.46575 17.8624 3.13756C17.5342 2.80937 17.0891 2.625 16.625 2.625H4.375C3.91087 2.625 3.46575 2.80937 3.13756 3.13756C2.80937 3.46575 2.625 3.91087 2.625 4.375Z" fill="white"/>
</svg>
