<svg width="20" height="20" viewBox="0 0 20 20" fill="none" xmlns="http://www.w3.org/2000/svg">
<path fill-rule="evenodd" clip-rule="evenodd" d="M11.1667 16.6667C11.1667 16.4457 11.0789 16.2337 10.9226 16.0774C10.7663 15.9211 10.5543 15.8333 10.3333 15.8333H4.66667C4.39052 15.8333 4.16667 15.6095 4.16667 15.3333V4.66667C4.16667 4.39052 4.39052 4.16667 4.66667 4.16667H10.3333C10.5543 4.16667 10.7663 4.07887 10.9226 3.92259C11.0789 3.76631 11.1667 3.55435 11.1667 3.33333C11.1667 3.11232 11.0789 2.90036 10.9226 2.74408C10.7663 2.5878 10.5543 2.5 10.3333 2.5H4.16667C3.72464 2.5 3.30072 2.67559 2.98816 2.98816C2.67559 3.30072 2.5 3.72464 2.5 4.16667V15.8333C2.5 16.2754 2.67559 16.6993 2.98816 17.0118C3.30072 17.3244 3.72464 17.5 4.16667 17.5H10.3333C10.5543 17.5 10.7663 17.4122 10.9226 17.2559C11.0789 17.0996 11.1667 16.8877 11.1667 16.6667Z" fill="#0C0C2F"/>
<path d="M17.5953 10.5835C17.7478 10.4285 17.8333 10.22 17.8337 10.0026V9.99765C17.8332 9.77746 17.7454 9.56646 17.5895 9.41098L14.2562 6.07765C14.1793 5.99806 14.0873 5.93457 13.9857 5.8909C13.884 5.84722 13.7746 5.82424 13.664 5.82327C13.5533 5.82231 13.4436 5.8434 13.3412 5.8853C13.2388 5.9272 13.1457 5.98908 13.0675 6.06732C12.9893 6.14556 12.9274 6.23861 12.8855 6.34102C12.8436 6.44343 12.8225 6.55317 12.8235 6.66382C12.8244 6.77447 12.8474 6.88382 12.8911 6.98549C12.9347 7.08716 12.9982 7.17911 13.0778 7.25598L14.9887 9.16682H7.00033C6.77931 9.16682 6.56735 9.25461 6.41107 9.41089C6.25479 9.56717 6.16699 9.77913 6.16699 10.0001C6.16699 10.2212 6.25479 10.4331 6.41107 10.5894C6.56735 10.7457 6.77931 10.8335 7.00033 10.8335H14.9887L13.0778 12.7443C12.926 12.9015 12.842 13.112 12.8439 13.3305C12.8458 13.549 12.9335 13.758 13.088 13.9125C13.2425 14.067 13.4515 14.1546 13.67 14.1565C13.8885 14.1584 14.099 14.0744 14.2562 13.9226L17.5895 10.5893L17.5953 10.5835Z" fill="#0C0C2F"/>
</svg>
