<svg width="21" height="21" viewBox="0 0 21 21" fill="none" xmlns="http://www.w3.org/2000/svg">
<g clip-path="url(#clip0_790_1387)">
<path d="M10.5 1.75C15.3326 1.75 19.25 5.66738 19.25 10.5C19.25 15.3326 15.3326 19.25 10.5 19.25C5.66738 19.25 1.75 15.3326 1.75 10.5C1.75 5.66738 5.66738 1.75 10.5 1.75ZM12.25 11.725L10.8815 12.8196C10.8335 12.8581 10.7941 12.9062 10.7659 12.9609C10.7378 13.0156 10.7214 13.0757 10.7181 13.1371C10.7147 13.1985 10.7243 13.26 10.7463 13.3175C10.7682 13.3749 10.8021 13.4271 10.8456 13.4706L11.9297 14.5548C12.1397 14.7649 12.2927 15.0251 12.3743 15.3107L12.5274 15.8471C12.5909 16.0722 12.7037 16.2802 12.8576 16.4563C13.0115 16.6323 13.2027 16.7718 13.4172 16.8647C14.2542 16.4802 15.0074 15.9346 15.6336 15.2591L15.4289 13.6168C15.393 13.331 15.2873 13.0585 15.1209 12.8235C14.9545 12.5884 14.7327 12.398 14.4751 12.2692L13.1889 11.6252C13.0392 11.5504 12.8712 11.5199 12.7048 11.5376C12.5384 11.5553 12.3806 11.6203 12.25 11.725ZM10.5 3.5C9.42904 3.49909 8.3722 3.74432 7.41108 4.21676C6.44997 4.68921 5.61028 5.37622 4.95687 6.22475L4.8125 6.41813V7.8925C4.81239 8.42669 4.97526 8.9482 5.27936 9.38738C5.58345 9.82657 6.01431 10.1625 6.51438 10.3504L6.67013 10.4029L7.79887 10.7485C9.00025 11.116 10.1701 10.1386 10.0538 8.9145L10.0371 8.78763L9.884 7.86975C9.85016 7.66643 9.88919 7.45769 9.9942 7.28032C10.0992 7.10296 10.2635 6.96836 10.458 6.90025L10.5525 6.874L11.088 6.7515C11.3918 6.68205 11.6787 6.55245 11.9316 6.37034C12.1845 6.18822 12.3984 5.95729 12.5606 5.69116C12.7229 5.42504 12.8301 5.12912 12.8761 4.82086C12.9221 4.5126 12.9059 4.19826 12.8284 3.89638C12.0804 3.63311 11.293 3.49907 10.5 3.5Z" fill="white"/>
</g>
<defs>
<clipPath id="clip0_790_1387">
<rect width="21" height="21" fill="white"/>
</clipPath>
</defs>
</svg>
