<svg width="21" height="21" viewBox="0 0 21 21" fill="none" xmlns="http://www.w3.org/2000/svg">
<g clip-path="url(#clip0_790_1393)">
<path fill-rule="evenodd" clip-rule="evenodd" d="M9.18784 1.75C8.00186 1.7501 6.8331 2.03382 5.77907 2.57748C4.72504 3.12115 3.8163 3.90899 3.12868 4.87528C2.44105 5.84158 1.99448 6.9583 1.82621 8.13229C1.65795 9.30627 1.77287 10.5035 2.1614 11.624C2.54993 12.7445 3.20078 13.7559 4.05968 14.5738C4.91857 15.3916 5.96059 15.9922 7.09879 16.3254C8.237 16.6586 9.43839 16.7148 10.6027 16.4893C11.7671 16.2638 12.8606 15.7631 13.7921 15.029L16.9876 18.2245C17.1526 18.3839 17.3736 18.4721 17.6031 18.4701C17.8325 18.4681 18.052 18.3761 18.2142 18.2138C18.3764 18.0516 18.4684 17.8321 18.4704 17.6027C18.4724 17.3733 18.3842 17.1523 18.2248 16.9873L15.0293 13.7918C15.8938 12.695 16.4321 11.3771 16.5826 9.98876C16.733 8.60042 16.4895 7.19777 15.88 5.94133C15.2705 4.6849 14.3196 3.62544 13.1361 2.8842C11.9526 2.14297 10.5843 1.74991 9.18784 1.75ZM3.50034 9.1875C3.50034 7.67908 4.09956 6.23244 5.16617 5.16583C6.23279 4.09922 7.67943 3.5 9.18784 3.5C10.6963 3.5 12.1429 4.09922 13.2095 5.16583C14.2761 6.23244 14.8753 7.67908 14.8753 9.1875C14.8753 10.6959 14.2761 12.1426 13.2095 13.2092C12.1429 14.2758 10.6963 14.875 9.18784 14.875C7.67943 14.875 6.23279 14.2758 5.16617 13.2092C4.09956 12.1426 3.50034 10.6959 3.50034 9.1875Z" fill="white"/>
</g>
<defs>
<clipPath id="clip0_790_1393">
<rect width="21" height="21" fill="white"/>
</clipPath>
</defs>
</svg>
