<svg width="21" height="21" viewBox="0 0 21 21" fill="none" xmlns="http://www.w3.org/2000/svg">
<path fill-rule="evenodd" clip-rule="evenodd" d="M12.4944 1.883C12.1707 1.75 11.7594 1.75 10.9378 1.75C10.1162 1.75 9.70578 1.75 9.38115 1.883C8.95017 2.05993 8.60711 2.40079 8.4274 2.83062C8.34515 3.02575 8.31365 3.25412 8.30053 3.58575C8.29469 3.82603 8.22767 4.06085 8.10579 4.268C7.98392 4.47516 7.81122 4.64781 7.60403 4.76963C7.39293 4.88697 7.15563 4.94913 6.91411 4.95035C6.6726 4.95157 6.43468 4.89182 6.2224 4.77663C5.92665 4.62088 5.71228 4.53513 5.50053 4.50712C5.03726 4.4463 4.56871 4.57082 4.19678 4.85362C3.91853 5.06537 3.7129 5.41887 3.30253 6.125C2.89128 6.83112 2.68653 7.18375 2.64015 7.52937C2.5789 7.98962 2.7049 8.45512 2.99015 8.8235C3.11965 8.9915 3.30253 9.13237 3.58515 9.30912C4.00253 9.569 4.27028 10.0118 4.27028 10.5C4.27028 10.9882 4.00253 11.431 3.58603 11.69C3.30253 11.8676 3.11965 12.0085 2.98928 12.1765C2.84847 12.3584 2.74512 12.5665 2.6852 12.7886C2.62528 13.0107 2.60996 13.2425 2.64015 13.4706C2.68653 13.8154 2.89128 14.1689 3.30253 14.875C3.71378 15.5811 3.91853 15.9337 4.19678 16.1464C4.56778 16.429 5.03678 16.5533 5.50053 16.4929C5.71228 16.4649 5.92665 16.3791 6.2224 16.2234C6.43479 16.108 6.67286 16.0482 6.91455 16.0494C7.15623 16.0506 7.3937 16.1129 7.6049 16.2304C8.03015 16.4754 8.28215 16.926 8.30053 17.4143C8.31365 17.7468 8.34515 17.9742 8.4274 18.1694C8.6059 18.5981 8.9489 18.9394 9.38115 19.117C9.7049 19.25 10.1162 19.25 10.9378 19.25C11.7594 19.25 12.1707 19.25 12.4944 19.117C12.9254 18.9401 13.2684 18.5992 13.4482 18.1694C13.5304 17.9742 13.5619 17.7468 13.575 17.4143C13.5925 16.926 13.8454 16.4745 14.2715 16.2304C14.4826 16.113 14.7199 16.0509 14.9614 16.0497C15.203 16.0484 15.4409 16.1082 15.6532 16.2234C15.9489 16.3791 16.1633 16.4649 16.375 16.4929C16.8388 16.5541 17.3078 16.429 17.6788 16.1464C17.957 15.9346 18.1627 15.5811 18.573 14.875C18.9843 14.1689 19.189 13.8163 19.2354 13.4706C19.2655 13.2425 19.25 13.0107 19.1899 12.7885C19.1299 12.5664 19.0264 12.3584 18.8854 12.1765C18.7559 12.0085 18.573 11.8676 18.2904 11.6909C17.873 11.431 17.6053 10.9882 17.6053 10.5C17.6053 10.0118 17.873 9.569 18.2895 9.31C18.573 9.13238 18.7559 8.9915 18.8863 8.8235C19.0271 8.64155 19.1304 8.4335 19.1904 8.21138C19.2503 7.98925 19.2656 7.75745 19.2354 7.52937C19.189 7.18462 18.9843 6.83112 18.573 6.125C18.1618 5.41887 17.957 5.06625 17.6788 4.85362C17.3068 4.57082 16.8383 4.4463 16.375 4.50712C16.1633 4.53513 15.9489 4.62088 15.6532 4.77663C15.4408 4.89198 15.2027 4.95181 14.961 4.95059C14.7193 4.94937 14.4819 4.88712 14.2707 4.76963C14.0636 4.6477 13.8911 4.47501 13.7694 4.26786C13.6477 4.06071 13.5808 3.82594 13.575 3.58575C13.5619 3.25325 13.5304 3.02575 13.4482 2.83062C13.3592 2.61777 13.2292 2.42452 13.0656 2.26193C12.9019 2.09933 12.7078 1.97057 12.4944 1.883ZM10.9378 13.125C12.399 13.125 13.5829 11.9499 13.5829 10.5C13.5829 9.05013 12.3982 7.875 10.9378 7.875C9.47653 7.875 8.29265 9.05013 8.29265 10.5C8.29265 11.9499 9.4774 13.125 10.9378 13.125Z" fill="white"/>
</svg>
